<?xml version="1.0" encoding="UTF-8" standalone="no"?>
<!DOCTYPE svg PUBLIC "-//W3C//DTD SVG 1.1//EN" "http://www.w3.org/Graphics/SVG/1.1/DTD/svg11.dtd">
<svg version="1.1" xmlns="http://www.w3.org/2000/svg" xmlns:xlink="http://www.w3.org/1999/xlink" preserveAspectRatio="xMidYMid meet" viewBox="0 0 640 640" width="640" height="640"><defs><path d="M232.81 233.98C232.81 233.98 228.63 252.16 222.1 258.88C216.53 264.61 209.7 268.58 199.92 269.63C207.92 265.74 213.42 257.64 213.42 248.27C213.42 235.12 202.58 224.46 189.2 224.46C175.83 224.46 164.98 235.12 164.98 248.27C164.98 251.86 165.79 255.27 167.24 258.32C158.87 251.65 157.56 240.97 157.56 240.97C157.56 240.97 148.22 279.75 173.96 298C199.7 316.25 250.12 300.56 250.12 300.56C250.12 300.56 177.96 351.34 124.49 296.08C78.43 248.47 112.47 185.8 112.47 185.8C112.47 185.8 111 191.61 111 198.36C111 205.11 114.66 210.24 114.66 210.24C114.66 210.24 125.57 187.24 134.07 177.88C142.11 169.02 152.18 161.84 160.89 155.64C167.59 150.86 173.48 146.67 176.99 142.74C196.36 121.08 184.48 81.64 184.48 81.64C184.48 81.64 206.31 100.88 212.41 125.74C214.73 135.21 213.24 145.99 211.9 155.63C209.73 171.28 207.98 183.93 223.65 183.11C248.98 181.78 226.97 142.74 226.97 142.74C226.97 142.74 284.42 172.93 280.13 225.74C275.84 278.56 217.33 290.56 217.33 290.56C217.33 290.56 232.63 278 235.6 267.15C238.57 256.3 233.36 240.62 232.81 233.98Z" id="c2Is87AJJ0"></path><path d="M-95.81 78.88C-145.52 78.88 -185.81 38.74 -185.81 -10.78C-185.81 -58.94 -100.68 -191.21 -96.01 -198.43C-95.9 -198.59 -95.72 -198.59 -95.61 -198.43C-90.94 -191.21 -5.81 -58.94 -5.81 -10.78C-5.81 38.74 -46.11 78.88 -95.81 78.88ZM-148.67 -10.45C-148.67 -10.45 -136.2 20.09 -105.93 29.99C-75.67 39.88 -39.1 25.37 -39.1 25.37C-39.1 25.37 -65.14 60.13 -110.81 50.14C-156.48 40.14 -141.1 1.67 -148.67 -10.45Z" id="a5By5LeO7f"></path><path d="M129.25 552.13C128.56 551.47 127.87 550.81 127.19 550.13C91.41 514.35 91.41 456.34 127.19 420.55C162.97 384.77 276.99 382.38 276.99 382.38C276.99 382.38 292.55 514.35 256.77 550.13C224.99 581.91 175.68 585.47 139.97 560.8C141.89 558.44 151.48 546.68 168.74 525.49L214.73 515.57L177.19 511.81L201.05 487.52L228.2 481.57L206.73 475.21L228.2 436.48L197.66 470.74L185.86 454.09L190.02 481.57L168.74 505.56L158.88 475.21L158.88 515.57C143.08 535.06 133.2 547.25 129.25 552.13Z" id="b4MLlJKq70"></path><path d="M744.81 -62.99C754.94 -62.99 836.02 -62.99 846.15 -62.99C846.26 -62.99 846.36 -62.92 846.39 -62.82C851.04 -47.78 888.28 72.53 892.94 87.57C892.99 87.73 892.87 87.89 892.7 87.89C885.95 87.89 831.98 87.89 825.23 87.89C825.15 87.89 825.09 87.97 825.11 88.05C828.98 101.67 859.94 210.64 863.81 224.26C863.88 224.52 863.54 224.7 863.37 224.48C848.33 204.48 728.04 44.5 713 24.51C712.88 24.34 712.99 24.11 713.2 24.11C719.32 24.11 768.31 24.11 774.43 24.11C774.51 24.11 774.57 24.03 774.55 23.95C772.55 18.17 762.56 -10.7 744.57 -62.66C744.62 -62.88 744.7 -62.99 744.81 -62.99Z" id="aWnePCaao"></path><path d="M452.36 555.61C415.46 549.46 395.78 508.77 395.78 486.91C395.78 435.06 434.15 423.27 460.09 423.27C486.03 423.27 502.95 448.56 502.95 468.14C502.95 487.72 489.1 504.85 467.55 504.85C446 504.85 439.61 489.72 439.61 475.81C439.61 461.9 450.87 456.99 461.13 456.99C471.4 456.99 474.91 465.76 474.91 473.29C474.91 480.82 469.07 483.52 464.19 483.52C459.32 483.52 458.84 481.06 456.97 478.48C455.1 475.89 459.35 466.11 452.36 466.11C445.37 466.11 444.07 477.36 444.07 477.36C444.07 477.36 446.62 499.06 467.55 498.69C488.48 498.31 498.41 482.13 495.52 466.11C492.64 450.09 477.09 433.06 449.8 436.5C422.51 439.94 411.37 467.52 416.28 496.98C421.19 526.45 456.49 543.52 484.25 537.38C512 531.24 539.64 511.14 539.64 460.2C539.64 409.25 495.52 378.63 442.91 383.68C390.3 388.73 357.65 434.72 359.74 489.99C361.83 545.25 414.27 575.35 458.61 576.9C502.95 578.45 530.13 552.78 530.13 552.78C530.13 552.78 536.25 547.33 533.85 543.07C531.45 538.82 525.44 544.12 525.44 544.12C510.83 546.42 501 563.72 452.36 555.61Z" id="b1Qw6EzQfg"></path><path d="M514.05 239.02C515.33 231.59 525.51 172.19 526.78 164.77C526.79 164.73 526.82 164.71 526.86 164.71C527.26 164.71 530.48 164.71 530.89 164.71C530.92 164.71 530.94 164.73 530.95 164.76C533.82 173.84 556.77 246.51 559.64 255.59C559.65 255.62 559.64 255.65 559.62 255.67C557.5 257.32 540.58 270.53 538.46 272.18C538.43 272.21 538.39 272.2 538.36 272.17C536.74 269.96 528.64 258.93 514.06 239.07C514.05 239.05 514.05 239.03 514.05 239.02ZM359.69 288.36C364.05 289.79 398.93 301.19 403.29 302.62C403.31 302.62 403.34 302.62 403.36 302.61C413.1 295.88 491.07 242.05 500.81 235.32C500.83 235.31 500.84 235.29 500.84 235.27C501.89 228.26 510.25 172.16 511.29 165.15C511.3 165.1 511.27 165.07 511.22 165.07C502.59 165.07 433.53 165.07 424.9 165.07C424.88 165.07 424.86 165.07 424.85 165.09C418.33 172.96 366.18 235.87 359.66 243.73C359.65 243.74 359.64 243.76 359.64 243.78C359.64 246.75 359.64 261.58 359.64 288.29C359.66 288.33 359.67 288.35 359.69 288.36ZM469.09 321.85C469.12 321.86 469.14 321.86 469.16 321.84C474.83 317.78 520.2 285.23 525.87 281.16C525.9 281.14 525.91 281.1 525.89 281.07C523.76 277.9 506.75 252.59 504.63 249.43C504.61 249.4 504.56 249.39 504.53 249.41C498.99 253.2 471.3 272.15 421.46 306.25C450.04 315.61 465.92 320.81 469.09 321.85Z" id="e1npyrtVCZ"></path></defs><g><g><g><use xlink:href="#c2Is87AJJ0" opacity="1" fill="#fa5443" fill-opacity="1"></use><g><use xlink:href="#c2Is87AJJ0" opacity="1" fill-opacity="0" stroke="#000000" stroke-width="1" stroke-opacity="0"></use></g></g><g><use xlink:href="#a5By5LeO7f" opacity="1" fill="#56aeff" fill-opacity="1"></use><g><use xlink:href="#a5By5LeO7f" opacity="1" fill-opacity="0" stroke="#000000" stroke-width="1" stroke-opacity="0"></use></g></g><g><use xlink:href="#b4MLlJKq70" opacity="1" fill="#8cd751" fill-opacity="1"></use><g><use xlink:href="#b4MLlJKq70" opacity="1" fill-opacity="0" stroke="#000000" stroke-width="1" stroke-opacity="0"></use></g></g><g><use xlink:href="#aWnePCaao" opacity="1" fill="#fde53c" fill-opacity="1"></use><g><use xlink:href="#aWnePCaao" opacity="1" fill-opacity="0" stroke="#000000" stroke-width="1" stroke-opacity="0"></use></g></g><g><use xlink:href="#b1Qw6EzQfg" opacity="1" fill="#f562b1" fill-opacity="1"></use><g><use xlink:href="#b1Qw6EzQfg" opacity="1" fill-opacity="0" stroke="#000000" stroke-width="1" stroke-opacity="0"></use></g></g><g><use xlink:href="#e1npyrtVCZ" opacity="1" fill="#ccbc72" fill-opacity="1"></use><g><use xlink:href="#e1npyrtVCZ" opacity="1" fill-opacity="0" stroke="#000000" stroke-width="1" stroke-opacity="0"></use></g></g></g></g></svg>