<svg width="90" height="51" xmlns="http://www.w3.org/2000/svg">
 <!-- Created with Method Draw - http://github.com/duopixel/Method-Draw/ -->

 <g>
  <title>background</title>
  <rect fill="#fff" id="canvas_background" height="53" width="92" y="-1" x="-1"/>
  <g display="none" overflow="visible" y="0" x="0" height="100%" width="100%" id="canvasGrid">
   <rect fill="url(#gridpattern)" stroke-width="0" y="0" x="0" height="100%" width="100%"/>
  </g>
 </g>
 <g>
  <title>Layer 1</title>
  <g id="svg_22">
   <g transform="matrix(0.19591927919883376,0,0,0.19591927919883376,0,0) " id="svg_5">
    <path fill="#95a5a6" id="svg_6" d="m229.68568,258.9384c-8.098,0 -16.195,-3.092 -22.369,-9.263l-194.284,-194.286c-12.359,-12.359 -12.359,-32.397 0,-44.751c12.354,-12.354 32.388,-12.354 44.748,0l171.905,171.915l171.906,-171.909c12.359,-12.354 32.391,-12.354 44.744,0c12.365,12.354 12.365,32.392 0,44.751l-194.281,194.286c-6.177,6.172 -14.274,9.257 -22.369,9.257z"/>
   </g>
   <g transform="matrix(0.19591927919883376,0,0,0.19591927919883376,0,0) " id="svg_7"/>
   <g transform="matrix(0.19591927919883376,0,0,0.19591927919883376,0,0) " id="svg_8"/>
   <g transform="matrix(0.19591927919883376,0,0,0.19591927919883376,0,0) " id="svg_9"/>
   <g transform="matrix(0.19591927919883376,0,0,0.19591927919883376,0,0) " id="svg_10"/>
   <g transform="matrix(0.19591927919883376,0,0,0.19591927919883376,0,0) " id="svg_11"/>
   <g transform="matrix(0.19591927919883376,0,0,0.19591927919883376,0,0) " id="svg_12"/>
   <g transform="matrix(0.19591927919883376,0,0,0.19591927919883376,0,0) " id="svg_13"/>
   <g transform="matrix(0.19591927919883376,0,0,0.19591927919883376,0,0) " id="svg_14"/>
   <g transform="matrix(0.19591927919883376,0,0,0.19591927919883376,0,0) " id="svg_15"/>
   <g transform="matrix(0.19591927919883376,0,0,0.19591927919883376,0,0) " id="svg_16"/>
   <g transform="matrix(0.19591927919883376,0,0,0.19591927919883376,0,0) " id="svg_17"/>
   <g transform="matrix(0.19591927919883376,0,0,0.19591927919883376,0,0) " id="svg_18"/>
   <g transform="matrix(0.19591927919883376,0,0,0.19591927919883376,0,0) " id="svg_19"/>
   <g transform="matrix(0.19591927919883376,0,0,0.19591927919883376,0,0) " id="svg_20"/>
   <g transform="matrix(0.19591927919883376,0,0,0.19591927919883376,0,0) " id="svg_21"/>
  </g>
 </g>
</svg>